<svg xmlns="http://www.w3.org/2000/svg" width="390" height="844" viewBox="0 0 390 844" role="img" aria-label="Ficha de anime con providers por pais">
  <defs>
    <linearGradient id="bg" x1="0" y1="0" x2="1" y2="1">
      <stop offset="0%" stop-color="#0A0A0F"/>
      <stop offset="100%" stop-color="#201832"/>
    </linearGradient>
    <linearGradient id="brand" x1="0" y1="0" x2="1" y2="1">
      <stop offset="0%" stop-color="#A78BFA"/>
      <stop offset="100%" stop-color="#FF6B9D"/>
    </linearGradient>
  </defs>
  <rect width="390" height="844" fill="url(#bg)"/>
  <rect x="20" y="28" width="350" height="54" rx="8" fill="#151522"/>
  <circle cx="48" cy="55" r="14" fill="url(#brand)"/>
  <rect x="78" y="46" width="126" height="18" rx="4" fill="#FFFFFF" opacity="0.9"/>
  <rect x="20" y="118" width="350" height="190" rx="8" fill="#151522"/>
  <rect x="42" y="142" width="126" height="146" rx="7" fill="url(#brand)" opacity="0.82"/>
  <rect x="188" y="146" width="152" height="22" rx="4" fill="#FFFFFF" opacity="0.9"/>
  <rect x="188" y="186" width="130" height="14" rx="4" fill="#B7B5C7"/>
  <rect x="188" y="214" width="112" height="14" rx="4" fill="#77738A"/>
  <rect x="20" y="340" width="350" height="120" rx="8" fill="#151522"/>
  <rect x="42" y="366" width="210" height="18" rx="4" fill="#FFFFFF" opacity="0.9"/>
  <rect x="42" y="404" width="300" height="12" rx="4" fill="#8B879D"/>
  <rect x="42" y="426" width="260" height="12" rx="4" fill="#8B879D"/>
  <rect x="20" y="492" width="350" height="260" rx="8" fill="#151522"/>
  <rect x="42" y="520" width="180" height="20" rx="4" fill="#FFFFFF" opacity="0.9"/>
  <rect x="42" y="570" width="306" height="46" rx="8" fill="#26243A"/>
  <rect x="42" y="632" width="306" height="46" rx="8" fill="#26243A"/>
  <rect x="42" y="694" width="306" height="46" rx="8" fill="#26243A"/>
</svg>
