<svg xmlns="http://www.w3.org/2000/svg" width="1280" height="720" viewBox="0 0 1280 720" role="img" aria-label="Catalogo principal de DondeAnime">
  <defs>
    <linearGradient id="bg" x1="0" y1="0" x2="1" y2="1">
      <stop offset="0%" stop-color="#0A0A0F"/>
      <stop offset="100%" stop-color="#201832"/>
    </linearGradient>
    <linearGradient id="brand" x1="0" y1="0" x2="1" y2="1">
      <stop offset="0%" stop-color="#A78BFA"/>
      <stop offset="100%" stop-color="#FF6B9D"/>
    </linearGradient>
  </defs>
  <rect width="1280" height="720" fill="url(#bg)"/>
  <rect x="72" y="56" width="1136" height="76" rx="8" fill="#151522"/>
  <circle cx="116" cy="94" r="20" fill="url(#brand)"/>
  <rect x="160" y="80" width="220" height="28" rx="4" fill="#FFFFFF" opacity="0.92"/>
  <rect x="770" y="76" width="360" height="36" rx="18" fill="#26243A"/>
  <rect x="72" y="184" width="520" height="84" rx="8" fill="#FFFFFF" opacity="0.92"/>
  <rect x="72" y="294" width="420" height="18" rx="4" fill="#B7B5C7"/>
  <rect x="72" y="330" width="500" height="18" rx="4" fill="#77738A"/>
  <g transform="translate(72 406)">
    <rect width="172" height="236" rx="8" fill="#151522"/>
    <rect x="16" y="16" width="140" height="152" rx="6" fill="url(#brand)" opacity="0.8"/>
    <rect x="16" y="188" width="116" height="16" rx="4" fill="#FFFFFF" opacity="0.88"/>
  </g>
  <g transform="translate(268 406)">
    <rect width="172" height="236" rx="8" fill="#151522"/>
    <rect x="16" y="16" width="140" height="152" rx="6" fill="#5EEAD4" opacity="0.75"/>
    <rect x="16" y="188" width="126" height="16" rx="4" fill="#FFFFFF" opacity="0.88"/>
  </g>
  <g transform="translate(464 406)">
    <rect width="172" height="236" rx="8" fill="#151522"/>
    <rect x="16" y="16" width="140" height="152" rx="6" fill="#FCD34D" opacity="0.75"/>
    <rect x="16" y="188" width="98" height="16" rx="4" fill="#FFFFFF" opacity="0.88"/>
  </g>
</svg>
