<svg xmlns="http://www.w3.org/2000/svg" width="1024" height="1024" viewBox="0 0 256 256" role="img" aria-label="DondeAnime">
  <defs>
    <radialGradient id="bgDepth" cx="0.5" cy="0.46" r="0.7">
      <stop offset="0" stop-color="#1C2039"></stop>
      <stop offset="0.55" stop-color="#13162B"></stop>
      <stop offset="1" stop-color="#0E1020"></stop>
    </radialGradient>
    <radialGradient id="surfaceAccent" cx="0.5" cy="0.47" r="0.36">
      <stop offset="0" stop-color="#1F2440" stop-opacity="0.9"></stop>
      <stop offset="0.7" stop-color="#1A1D33" stop-opacity="0.45"></stop>
      <stop offset="1" stop-color="#1A1D33" stop-opacity="0"></stop>
    </radialGradient>
    <linearGradient id="pinFill" x1="74" y1="46" x2="186" y2="214" gradientUnits="userSpaceOnUse">
      <stop offset="0" stop-color="#FF7E55"></stop>
      <stop offset="0.55" stop-color="#FF6B4A"></stop>
      <stop offset="1" stop-color="#EC5836"></stop>
    </linearGradient>
    <linearGradient id="warmWash" x1="56" y1="98" x2="124" y2="110" gradientUnits="userSpaceOnUse">
      <stop offset="0" stop-color="#FFB58E" stop-opacity="0.7"></stop>
      <stop offset="1" stop-color="#FFB58E" stop-opacity="0"></stop>
    </linearGradient>
    <linearGradient id="coolWash" x1="176" y1="142" x2="206" y2="92" gradientUnits="userSpaceOnUse">
      <stop offset="0" stop-color="#36E0E6" stop-opacity="0"></stop>
      <stop offset="1" stop-color="#36E0E6" stop-opacity="0.42"></stop>
    </linearGradient>
    <radialGradient id="playGrad" cx="0.4" cy="0.38" r="0.85">
      <stop offset="0" stop-color="#93F4F7"></stop>
      <stop offset="0.55" stop-color="#36E0E6"></stop>
      <stop offset="1" stop-color="#23C8CF"></stop>
    </radialGradient>
    <radialGradient id="headLight" cx="0.5" cy="0.5" r="0.5">
      <stop offset="0" stop-color="#F4F5FB" stop-opacity="0.95"></stop>
      <stop offset="1" stop-color="#F4F5FB" stop-opacity="0"></stop>
    </radialGradient>
    <filter id="cyanGlow" x="-90%" y="-90%" width="280%" height="280%">
      <feGaussianBlur stdDeviation="5.5"></feGaussianBlur>
    </filter>
    <clipPath id="pinClip">
      <path d="M128 36c-39.8 0-72 30.6-72 68.4 0 46 50.4 96.2 67.1 111.6a7.3 7.3 0 0 0 9.8 0c16.7-15.4 67.1-65.6 67.1-111.6C200 66.6 167.8 36 128 36Z"></path>
    </clipPath>
  </defs>

  <rect width="256" height="256" fill="#0E1020"></rect>
  <rect width="256" height="256" fill="url(#bgDepth)"></rect>
  <rect width="256" height="256" fill="url(#surfaceAccent)"></rect>

  <g transform="translate(128 128) scale(0.72) translate(-128 -128)">
    <ellipse cx="126" cy="103" rx="48" ry="42" fill="#36E0E6" opacity="0.16" filter="url(#cyanGlow)"></ellipse>

    <g clip-path="url(#pinClip)">
      <rect x="40" y="30" width="176" height="200" fill="url(#pinFill)"></rect>
      <rect x="40" y="30" width="176" height="200" fill="url(#warmWash)"></rect>
      <rect x="40" y="30" width="176" height="200" fill="url(#coolWash)"></rect>
      <ellipse cx="103" cy="82" rx="26" ry="22" fill="url(#headLight)" opacity="0.32"></ellipse>
    </g>

    <path d="M112 74l46 30-46 30z" fill="#36E0E6" opacity="0.5" filter="url(#cyanGlow)"></path>
    <path d="M112 74l46 30-46 30z" fill="url(#playGrad)"></path>
    <path d="M112 74l46 30-3.2 2.1-42.8-27.9z" fill="#F4F5FB" opacity="0.5"></path>
  </g>
</svg>