<?xml version="1.0"?>

<svg xmlns="http://www.w3.org/2000/svg" width="1024" height="256" viewBox="0 0 1024 256" fill="none" role="img" aria-label="DondeAnime">
  <defs>
    <filter id="glowCoral" x="-80%" y="-80%" width="260%" height="260%"><feDropShadow dx="0" dy="0" stdDeviation="6" flood-color="#FF6B4A" flood-opacity="0.5"></feDropShadow></filter>
    <filter id="glowCyan" x="-80%" y="-80%" width="260%" height="260%"><feDropShadow dx="0" dy="0" stdDeviation="6" flood-color="#36E0E6" flood-opacity="0.5"></feDropShadow></filter>
    <filter id="wordGlow" x="-12%" y="-70%" width="124%" height="240%"><feDropShadow dx="-2.5" dy="0" stdDeviation="7" flood-color="#FF6B4A" flood-opacity="0.32"></feDropShadow><feDropShadow dx="2.5" dy="0" stdDeviation="7" flood-color="#36E0E6" flood-opacity="0.32"></feDropShadow></filter>
  </defs>
  <g transform="translate(8,4)">
    <path d="M128 36c-39.8 0-72 30.6-72 68.4 0 46 50.4 96.2 67.1 111.6a7.3 7.3 0 0 0 9.8 0c16.7-15.4 67.1-65.6 67.1-111.6C200 66.6 167.8 36 128 36Z" fill="#FF6B4A" filter="url(#glowCoral)"></path>
    <path d="M112 74l46 30-46 30z" fill="#36E0E6" filter="url(#glowCyan)"></path>
  </g>
  <g filter="url(#wordGlow)"><g transform="translate(300,156) scale(0.10000,-0.10000)" fill="#F4F5FB"><path transform="translate(0.0,0)" d="M86 0L86 710L314 710Q481 710 571 617.5Q661 525 661 354Q661 184 572.5 92Q484 0 320 0ZM194 99L314 99Q432 99 490.5 162.5Q549 226 549 354Q549 484 490.5 547.5Q432 611 314 611L194 611Z"></path><path transform="translate(747.0,0)" d="M294 -12Q218 -12 161 22Q104 56 73 119Q42 182 42 266Q42 351 73 413Q104 475 161 509.5Q218 544 294 544Q370 544 427 509.5Q484 475 515 413Q546 351 546 266Q546 182 515 119Q484 56 427 22Q370 -12 294 -12ZM294 80Q362 80 399 129.5Q436 179 436 266Q436 353 399 402.5Q362 452 294 452Q227 452 189.5 402.5Q152 353 152 266Q152 179 189.5 129.5Q227 80 294 80Z"></path><path transform="translate(1355.0,0)" d="M75 0L75 532L172 532L176 390L163 397Q172 449 197 481Q222 513 258 528.5Q294 544 336 544Q396 544 435.5 517.5Q475 491 495.5 445.5Q516 400 516 342L516 0L410 0L410 310Q410 357 400 389Q390 421 367 438Q344 455 307 455Q251 455 216 418Q181 381 181 310L181 0Z"></path><path transform="translate(1964.0,0)" d="M264 -12Q196 -12 145.5 22Q95 56 68.5 118.5Q42 181 42 266Q42 351 69 413.5Q96 476 146 510Q196 544 264 544Q319 544 362 521Q405 498 427 457L427 710L533 710L533 0L434 0L431 80Q409 37 364.5 12.5Q320 -12 264 -12ZM292 80Q335 80 365 102Q395 124 411 166Q427 208 427 266Q427 326 411 367.5Q395 409 365 430.5Q335 452 292 452Q228 452 190 402.5Q152 353 152 266Q152 180 190 130Q228 80 292 80Z"></path><path transform="translate(2592.0,0)" d="M294 -12Q216 -12 159.5 22Q103 56 72.5 119Q42 182 42 266Q42 350 72.5 412.5Q103 475 159 509.5Q215 544 291 544Q363 544 418 510.5Q473 477 503.5 414Q534 351 534 262L534 235L152 235Q156 157 193.5 118Q231 79 295 79Q342 79 373 101Q404 123 416 160L526 153Q505 79 443.5 33.5Q382 -12 294 -12ZM152 315L422 315Q417 386 381.5 420Q346 454 291 454Q234 454 197.5 418.5Q161 383 152 315Z"></path><path transform="translate(3188.0,0)" d="M20 0L276 710L413 710L669 0L554 0L489 185L199 185L135 0ZM233 283L456 283L344 607Z"></path><path transform="translate(3887.0,0)" d="M75 0L75 532L172 532L176 390L163 397Q172 449 197 481Q222 513 258 528.5Q294 544 336 544Q396 544 435.5 517.5Q475 491 495.5 445.5Q516 400 516 342L516 0L410 0L410 310Q410 357 400 389Q390 421 367 438Q344 455 307 455Q251 455 216 418Q181 381 181 310L181 0Z"></path><path transform="translate(4498.0,0)" d="M75 0L75 532L181 532L181 0ZM73 609L73 715L183 715L183 609Z"></path><path transform="translate(4793.0,0)" d="M75 0L75 532L172 532L175 400L163 404Q172 448 194.5 479Q217 510 250 527Q283 544 322 544Q390 544 433 505.5Q476 467 487 400L470 400Q479 447 500.5 478.5Q522 510 556 527Q590 544 633 544Q689 544 728.5 520.5Q768 497 788.5 452Q809 407 809 342L809 0L703 0L703 316Q703 385 678 420Q653 455 602 455Q569 455 544 438Q519 421 505.5 389Q492 357 492 312L492 0L391 0L391 312Q391 380 368.5 417.5Q346 455 292 455Q258 455 233.5 438Q209 421 195 388.5Q181 356 181 312L181 0Z"></path><path transform="translate(5696.0,0)" d="M294 -12Q216 -12 159.5 22Q103 56 72.5 119Q42 182 42 266Q42 350 72.5 412.5Q103 475 159 509.5Q215 544 291 544Q363 544 418 510.5Q473 477 503.5 414Q534 351 534 262L534 235L152 235Q156 157 193.5 118Q231 79 295 79Q342 79 373 101Q404 123 416 160L526 153Q505 79 443.5 33.5Q382 -12 294 -12ZM152 315L422 315Q417 386 381.5 420Q346 454 291 454Q234 454 197.5 418.5Q161 383 152 315Z"></path></g></g>
</svg>