<?xml version="1.0"?>

<svg xmlns="http://www.w3.org/2000/svg" width="1024" height="256" viewBox="0 0 1024 256" fill="none" role="img" aria-label="DondeAnime">
  <g transform="translate(8,4)">
    <path d="M128 36c-39.8 0-72 30.6-72 68.4 0 46 50.4 96.2 67.1 111.6a7.3 7.3 0 0 0 9.8 0c16.7-15.4 67.1-65.6 67.1-111.6C200 66.6 167.8 36 128 36Z" fill="#FF6B4A"></path>
    <path d="M112 74l46 30-46 30z" fill="#36E0E6"></path>
  </g>
  <g transform="translate(300,156) scale(0.10400,-0.10400)" fill="#F4F5FB"><path transform="translate(0.0,0)" d="M80 0L80 710L316 710Q486 710 577.5 617.5Q669 525 669 354Q669 184 579 92Q489 0 322 0ZM210 113L316 113Q427 113 481 173Q535 233 535 354Q535 477 481 537Q427 597 316 597L210 597Z"></path><path transform="translate(711.4,0)" d="M302 -12Q223 -12 163.5 22.5Q104 57 71.5 120Q39 183 39 267Q39 352 71.5 414.5Q104 477 163.5 511.5Q223 546 302 546Q381 546 440 511.5Q499 477 531.5 414.5Q564 352 564 267Q564 183 531.5 120Q499 57 440 22.5Q381 -12 302 -12ZM302 92Q364 92 397.5 138Q431 184 431 267Q431 349 397.5 395.5Q364 442 302 442Q240 442 206 395.5Q172 349 172 267Q172 184 206 138Q240 92 302 92Z"></path><path transform="translate(1294.8,0)" d="M70 0L70 534L186 534L191 384L176 390Q184 446 209 480Q234 514 270 530Q306 546 349 546Q408 546 448.5 520Q489 494 510 448.5Q531 403 531 343L531 0L403 0L403 302Q403 347 394 378Q385 409 364.5 425.5Q344 442 310 442Q259 442 228.5 406Q198 370 198 302L198 0Z"></path><path transform="translate(1873.2,0)" d="M260 -12Q192 -12 142.5 22Q93 56 66 119Q39 182 39 267Q39 352 66 415Q93 478 143 512Q193 546 260 546Q316 546 358.5 523Q401 500 423 458L423 710L551 710L551 0L429 0L426 79Q404 36 360 12Q316 -12 260 -12ZM299 92Q339 92 366.5 112Q394 132 408.5 171.5Q423 211 423 267Q423 324 408.5 363Q394 402 366.5 422Q339 442 299 442Q241 442 206.5 395.5Q172 349 172 267Q172 187 206.5 139.5Q241 92 299 92Z"></path><path transform="translate(2474.5,0)" d="M301 -12Q221 -12 162 22.5Q103 57 71 120Q39 183 39 267Q39 351 71 413.5Q103 476 161.5 511Q220 546 298 546Q374 546 431.5 512Q489 478 520 414Q551 350 551 260L551 231L172 231Q176 161 210.5 125.5Q245 90 302 90Q345 90 373.5 109.5Q402 129 413 164L544 156Q522 78 457.5 33Q393 -12 301 -12ZM172 317L419 317Q415 382 382 413.5Q349 445 298 445Q247 445 213.5 412Q180 379 172 317Z"></path><path transform="translate(3045.9,0)" d="M19 0L275 710L434 710L690 0L554 0L495 168L214 168L155 0ZM252 279L457 279L355 579Z"></path><path transform="translate(3725.3,0)" d="M70 0L70 534L186 534L191 384L176 390Q184 446 209 480Q234 514 270 530Q306 546 349 546Q408 546 448.5 520Q489 494 510 448.5Q531 403 531 343L531 0L403 0L403 302Q403 347 394 378Q385 409 364.5 425.5Q344 442 310 442Q259 442 228.5 406Q198 370 198 302L198 0Z"></path><path transform="translate(4307.7,0)" d="M70 0L70 534L198 534L198 0ZM68 605L68 719L201 719L201 605Z"></path><path transform="translate(4575.1,0)" d="M70 0L70 534L186 534L190 403L178 409Q187 452 209.5 482.5Q232 513 264.5 529.5Q297 546 336 546Q404 546 446 507.5Q488 469 499 402L482 402Q491 449 513 480.5Q535 512 568.5 529Q602 546 644 546Q699 546 739 522.5Q779 499 800.5 454Q822 409 822 343L822 0L694 0L694 310Q694 376 671.5 409Q649 442 603 442Q572 442 550 426Q528 410 516.5 379.5Q505 349 505 306L505 0L386 0L386 306Q386 372 366 407Q346 442 297 442Q266 442 244.5 426Q223 410 210.5 379.5Q198 349 198 306L198 0Z"></path><path transform="translate(5444.5,0)" d="M301 -12Q221 -12 162 22.5Q103 57 71 120Q39 183 39 267Q39 351 71 413.5Q103 476 161.5 511Q220 546 298 546Q374 546 431.5 512Q489 478 520 414Q551 350 551 260L551 231L172 231Q176 161 210.5 125.5Q245 90 302 90Q345 90 373.5 109.5Q402 129 413 164L544 156Q522 78 457.5 33Q393 -12 301 -12ZM172 317L419 317Q415 382 382 413.5Q349 445 298 445Q247 445 213.5 412Q180 379 172 317Z"></path></g>
</svg>