<svg xmlns="http://www.w3.org/2000/svg" width="2200" height="680" viewBox="0 0 2200 680" fill="none" role="img" aria-label="Curated anime lists — a cozy floating library of collection cards and shelves, with the DondeAnime mascot slotting a glowing card">
  <defs>
    <radialGradient id="h_warm" cx="0.1" cy="0.05" r="0.7">
      <stop offset="0" stop-color="#FF6B4A" stop-opacity="0.22"></stop>
      <stop offset="0.5" stop-color="#FF6B4A" stop-opacity="0.06"></stop>
      <stop offset="1" stop-color="#FF6B4A" stop-opacity="0"></stop>
    </radialGradient>
    <radialGradient id="h_cool" cx="0.92" cy="0.12" r="0.8">
      <stop offset="0" stop-color="#36E0E6" stop-opacity="0.2"></stop>
      <stop offset="0.5" stop-color="#36E0E6" stop-opacity="0.05"></stop>
      <stop offset="1" stop-color="#36E0E6" stop-opacity="0"></stop>
    </radialGradient>
    <radialGradient id="h_vign" cx="0.52" cy="0.42" r="0.72">
      <stop offset="0.5" stop-color="#0E1020" stop-opacity="0"></stop>
      <stop offset="1" stop-color="#06070F" stop-opacity="0.9"></stop>
    </radialGradient>
    <linearGradient id="h_panel" x1="0" y1="0" x2="0" y2="1">
      <stop offset="0" stop-color="#1B1E36"></stop>
      <stop offset="1" stop-color="#121526"></stop>
    </linearGradient>
    <linearGradient id="h_ray_w" x1="0" y1="0" x2="0.4" y2="1">
      <stop offset="0" stop-color="#FF7A52" stop-opacity="0.10"></stop>
      <stop offset="1" stop-color="#FF7A52" stop-opacity="0"></stop>
    </linearGradient>
    <linearGradient id="h_ray_c" x1="1" y1="0" x2="0.6" y2="1">
      <stop offset="0" stop-color="#36E0E6" stop-opacity="0.10"></stop>
      <stop offset="1" stop-color="#36E0E6" stop-opacity="0"></stop>
    </linearGradient>
    <radialGradient id="h_pool" cx="0.5" cy="0.5" r="0.5">
      <stop offset="0" stop-color="#36E0E6" stop-opacity="0.5"></stop>
      <stop offset="1" stop-color="#36E0E6" stop-opacity="0"></stop>
    </radialGradient>
    <radialGradient id="h_poolw" cx="0.5" cy="0.5" r="0.5">
      <stop offset="0" stop-color="#FF6B4A" stop-opacity="0.45"></stop>
      <stop offset="1" stop-color="#FF6B4A" stop-opacity="0"></stop>
    </radialGradient>
    <linearGradient id="h_card" x1="0" y1="0" x2="0" y2="1">
      <stop offset="0" stop-color="#7BF2F6"></stop>
      <stop offset="1" stop-color="#36E0E6"></stop>
    </linearGradient>
    <linearGradient id="h_cardface" x1="0" y1="0" x2="0" y2="1">
      <stop offset="0" stop-color="#16384A"></stop>
      <stop offset="1" stop-color="#102A39"></stop>
    </linearGradient>
    <linearGradient id="h_hair" x1="0.35" y1="0" x2="0.5" y2="1">
      <stop offset="0" stop-color="#FF93B7"></stop>
      <stop offset="0.58" stop-color="#FF8FB4"></stop>
      <stop offset="0.78" stop-color="#9FE6E0"></stop>
      <stop offset="1" stop-color="#36E0E6"></stop>
    </linearGradient>
    <linearGradient id="h_hairback" x1="0.5" y1="0" x2="0.5" y2="1">
      <stop offset="0" stop-color="#F77FA6"></stop>
      <stop offset="0.7" stop-color="#F06B98"></stop>
      <stop offset="1" stop-color="#2FBEC4"></stop>
    </linearGradient>
    <linearGradient id="h_shine" x1="0" y1="0" x2="0" y2="1">
      <stop offset="0" stop-color="#FFFFFF" stop-opacity="0.55"></stop>
      <stop offset="1" stop-color="#FFFFFF" stop-opacity="0"></stop>
    </linearGradient>
    <radialGradient id="h_iris" cx="0.5" cy="0.32" r="0.75">
      <stop offset="0" stop-color="#F06A93"></stop>
      <stop offset="0.45" stop-color="#B83A66"></stop>
      <stop offset="1" stop-color="#5E0E1C"></stop>
    </radialGradient>
    <linearGradient id="h_denim" x1="0" y1="0" x2="0" y2="1">
      <stop offset="0" stop-color="#6E92BE"></stop>
      <stop offset="1" stop-color="#52739E"></stop>
    </linearGradient>
    <filter id="f_soft" x="-80%" y="-80%" width="260%" height="260%"><feGaussianBlur stdDeviation="9"></feGaussianBlur></filter>
    <filter id="f_tight" x="-60%" y="-60%" width="220%" height="220%"><feGaussianBlur stdDeviation="2.6"></feGaussianBlur></filter>
    <filter id="f_bloom" x="-120%" y="-120%" width="340%" height="340%"><feGaussianBlur stdDeviation="20"></feGaussianBlur></filter>
    <filter id="f_depth" x="-40%" y="-40%" width="180%" height="180%"><feGaussianBlur stdDeviation="5"></feGaussianBlur></filter>
    <filter id="f_cardsh" x="-50%" y="-50%" width="200%" height="200%">
      <feDropShadow dx="0" dy="10" stdDeviation="12" flood-color="#05060E" flood-opacity="0.55"></feDropShadow>
    </filter>
    <g id="spk"><path d="M0 -8 C1.2 -1.6 1.6 -1.2 8 0 C1.6 1.2 1.2 1.6 0 8 C-1.2 1.6 -1.6 1.2 -8 0 C-1.6 -1.2 -1.2 -1.6 0 -8 Z"></path></g>
  </defs>

  
  <rect width="2200" height="680" fill="#0E1020"></rect>
  <polygon points="60,-60 520,-60 360,740 -120,740" fill="url(#h_ray_w)"></polygon>
  <polygon points="1760,-60 2260,-60 2360,740 1980,740" fill="url(#h_ray_c)"></polygon>
  <rect width="2200" height="680" fill="url(#h_warm)"></rect>
  <rect width="2200" height="680" fill="url(#h_cool)"></rect>

  
  <rect x="744" y="70" width="1392" height="566" rx="38" fill="url(#h_panel)"></rect>
  <rect x="744" y="70" width="1392" height="566" rx="38" fill="none" stroke="#2C3252" stroke-width="1.5"></rect>
  <rect x="776" y="71" width="1328" height="2.5" rx="1.25" fill="#36E0E6" opacity="0.4"></rect>
  <rect x="744" y="70" width="1392" height="566" rx="38" fill="none" stroke="#000000" stroke-width="2" opacity="0.25" transform="translate(0,2)"></rect>

  
  <g stroke="#36E0E6" stroke-width="1" opacity="0.13">
    <line x1="120" y1="150" x2="2080" y2="150"></line>
    <line x1="120" y1="544" x2="2080" y2="544"></line>
  </g>
  <g stroke="#F4F5FB" stroke-width="1" opacity="0.05">
    <line x1="980" y1="44" x2="980" y2="612"></line>
    <line x1="1360" y1="44" x2="1360" y2="612"></line>
    <line x1="1740" y1="44" x2="1740" y2="612"></line>
  </g>
  <g fill="#36E0E6" opacity="0.4">
    <circle cx="980" cy="150" r="3"></circle><circle cx="1360" cy="150" r="3"></circle><circle cx="1740" cy="150" r="3"></circle>
    <circle cx="980" cy="544" r="3"></circle><circle cx="1360" cy="544" r="3"></circle>
  </g>
  <g stroke="#36E0E6" stroke-width="1" opacity="0.28">
    <line x1="1010" y1="146" x2="1010" y2="154"></line><line x1="1110" y1="146" x2="1110" y2="154"></line>
    <line x1="1210" y1="146" x2="1210" y2="154"></line><line x1="1310" y1="146" x2="1310" y2="154"></line>
  </g>

  
  <g filter="url(#f_depth)" opacity="0.5">
    <rect x="828" y="232" width="430" height="12" rx="4" fill="#222740"></rect>
    <g fill="#1C2138">
      <rect x="846" y="150" width="26" height="82" rx="4"></rect><rect x="880" y="140" width="26" height="92" rx="4"></rect>
      <rect x="914" y="156" width="26" height="76" rx="4"></rect><rect x="948" y="146" width="26" height="86" rx="4"></rect>
      <rect x="982" y="150" width="26" height="82" rx="4"></rect><rect x="1016" y="138" width="26" height="94" rx="4"></rect>
      <rect x="1050" y="156" width="26" height="76" rx="4"></rect><rect x="1084" y="148" width="26" height="84" rx="4"></rect>
      <rect x="1118" y="142" width="26" height="90" rx="4"></rect><rect x="1152" y="152" width="26" height="80" rx="4"></rect>
      <rect x="1186" y="146" width="26" height="86" rx="4"></rect><rect x="1220" y="150" width="26" height="82" rx="4"></rect>
    </g>
    <rect x="858" y="156" width="26" height="5" fill="#36E0E6" opacity="0.4"></rect>
    <rect x="1028" y="150" width="26" height="5" fill="#FF6B4A" opacity="0.4"></rect>
    <rect x="1130" y="150" width="26" height="5" fill="#36E0E6" opacity="0.4"></rect>
  </g>

  
  <ellipse cx="868" cy="262" rx="120" ry="60" fill="url(#h_pool)" opacity="0.5"></ellipse>
  <ellipse cx="1150" cy="470" rx="240" ry="84" fill="url(#h_pool)" opacity="0.45"></ellipse>
  <ellipse cx="1560" cy="470" rx="150" ry="70" fill="url(#h_pool)" opacity="0.5"></ellipse>

  
  <g transform="translate(806,196)">
    <g filter="url(#f_bloom)" opacity="0.6"><rect x="6" y="14" width="96" height="64" rx="14" fill="#36E0E6"></rect></g>
    <path d="M8 16 h30 l11 13 h49 a12 12 0 0 1 12 12 v33 a12 12 0 0 1 -12 12 H8 a12 12 0 0 1 -12 -12 V28 a12 12 0 0 1 12 -12 Z" fill="#143146" stroke="#4FE9EE" stroke-width="2.5"></path>
    <path d="M8 16 h30 l11 13 h49 a12 12 0 0 1 12 12 v4 H-4 V28 a12 12 0 0 1 12 -12 Z" fill="#1B4258"></path>
    <rect x="16" y="46" width="68" height="6" rx="3" fill="#5BEDF1"></rect>
    <rect x="16" y="60" width="46" height="6" rx="3" fill="#36E0E6" opacity="0.6"></rect>
    <use href="#spk" transform="translate(96,8) scale(0.7)" fill="#BFF6F8"></use>
  </g>

  
  <g>
    <rect x="836" y="432" width="690" height="15" rx="5" fill="#2A2F4C"></rect>
    <rect x="836" y="432" width="690" height="3" rx="1.5" fill="#4FE9EE" opacity="0.8"></rect>
    <rect x="848" y="447" width="666" height="9" rx="4" fill="#080A14" opacity="0.55"></rect>
  </g>
  
  <g>
    <g transform="translate(860,302)"><rect width="38" height="130" rx="6" fill="#2C3354"></rect><rect width="38" height="5" rx="2.5" fill="#3A4368" opacity="0.9"></rect><circle cx="19" cy="34" r="9" fill="none" stroke="#36E0E6" stroke-width="2.4" opacity="0.6"></circle><rect x="9" y="104" width="20" height="5" rx="2.5" fill="#F4F5FB" opacity="0.18"></rect></g>
    <g transform="translate(904,290)"><rect width="38" height="142" rx="6" fill="#323A60"></rect><rect width="38" height="5" rx="2.5" fill="#434C78" opacity="0.9"></rect><path d="M11 30 l8 -12 l8 12 Z" fill="#FF6B4A" opacity="0.75"></path><rect x="9" y="116" width="20" height="5" rx="2.5" fill="#F4F5FB" opacity="0.16"></rect></g>
    <g transform="translate(948,308)"><rect width="38" height="124" rx="6" fill="#222B49"></rect><rect width="38" height="5" rx="2.5" fill="#313A5E" opacity="0.9"></rect><rect x="11" y="26" width="16" height="16" rx="3" fill="#36E0E6" opacity="0.45"></rect></g>
    <g transform="translate(992,294)"><rect width="38" height="138" rx="6" fill="#39426B"></rect><rect width="38" height="5" rx="2.5" fill="#4A5482" opacity="0.9"></rect><circle cx="19" cy="34" r="9" fill="#FF6B4A" opacity="0.55"></circle><rect x="9" y="112" width="20" height="5" rx="2.5" fill="#F4F5FB" opacity="0.2"></rect></g>
    <g transform="translate(1036,302)"><rect width="38" height="130" rx="6" fill="#262C49"></rect><rect width="38" height="5" rx="2.5" fill="#353C5F" opacity="0.9"></rect><path d="M9 38 h20 M9 28 h20" stroke="#36E0E6" stroke-width="2.2" opacity="0.5"></path></g>
    <g transform="translate(1080,288)"><rect width="38" height="144" rx="6" fill="#2C3354"></rect><rect width="38" height="5" rx="2.5" fill="#3A4368" opacity="0.9"></rect><path d="M11 32 l8 -12 l8 12 Z" fill="#36E0E6" opacity="0.6"></path></g>
    <g transform="translate(1124,306)"><rect width="38" height="126" rx="6" fill="#323A60"></rect><rect width="38" height="5" rx="2.5" fill="#434C78" opacity="0.9"></rect><circle cx="19" cy="32" r="8" fill="none" stroke="#FF6B4A" stroke-width="2.2" opacity="0.6"></circle><rect x="9" y="104" width="20" height="5" rx="2.5" fill="#F4F5FB" opacity="0.18"></rect></g>
    <g transform="translate(1168,298)"><rect width="38" height="134" rx="6" fill="#222B49"></rect><rect width="38" height="5" rx="2.5" fill="#313A5E" opacity="0.9"></rect><rect x="11" y="26" width="16" height="16" rx="3" fill="#36E0E6" opacity="0.4"></rect></g>
  </g>

  
  <g filter="url(#f_cardsh)" transform="rotate(-12 1330 360)">
    <rect x="1248" y="234" width="170" height="238" rx="18" fill="#1E2440" stroke="#333A5E" stroke-width="1.5"></rect>
    <g transform="translate(1266,252)">
      <rect width="60" height="42" rx="5" fill="#2A3052"></rect><rect x="68" width="60" height="42" rx="5" fill="#2A3052"></rect>
      <rect y="50" width="60" height="42" rx="5" fill="#2A3052"></rect><rect x="68" y="50" width="60" height="42" rx="5" fill="#2A3052"></rect>
    </g>
    <rect x="1266" y="356" width="120" height="9" rx="4.5" fill="#3A4063"></rect>
    <rect x="1266" y="376" width="92" height="9" rx="4.5" fill="#30354F"></rect>
    <rect x="1266" y="436" width="56" height="9" rx="4.5" fill="#FF6B4A" opacity="0.55"></rect>
  </g>
  <g filter="url(#f_cardsh)" transform="rotate(-3 1340 360)">
    <rect x="1274" y="222" width="178" height="250" rx="18" fill="#242A48" stroke="#3A4166" stroke-width="1.5"></rect>
    <path d="M1410 222 h28 v58 l-14 -13 l-14 13 Z" fill="#FF6B4A"></path>
    <path d="M1410 222 h28 v10 l-28 0 Z" fill="#E0552F" opacity="0.7"></path>
    <g transform="translate(1294,244)">
      <rect width="62" height="44" rx="5" fill="#303663"></rect><rect x="70" width="62" height="44" rx="5" fill="#303663"></rect>
      <rect y="52" width="62" height="44" rx="5" fill="#303663"></rect><rect x="70" y="52" width="62" height="44" rx="5" fill="#303663"></rect>
      <circle cx="31" cy="22" r="9" fill="#36E0E6" opacity="0.4"></circle><path d="M93 14 l9 -12 l9 12 Z" fill="#FF6B4A" opacity="0.5"></path>
    </g>
    <g transform="translate(1294,356)"><circle cx="13" cy="13" r="13" fill="#36E0E6" opacity="0.18"></circle><path d="M7 13 l4 5 l9 -10" stroke="#5BEDF1" stroke-width="2.8" fill="none" stroke-linecap="round" stroke-linejoin="round"></path></g>
    <rect x="1330" y="356" width="106" height="9" rx="4.5" fill="#434A6E"></rect>
    <rect x="1294" y="412" width="142" height="9" rx="4.5" fill="#3A4063"></rect>
    <rect x="1294" y="432" width="108" height="9" rx="4.5" fill="#32384f"></rect>
  </g>
  <g filter="url(#f_cardsh)" transform="rotate(5 1360 360)">
    <rect x="1300" y="232" width="184" height="254" rx="18" fill="#2A3156" stroke="#474E76" stroke-width="1.5"></rect>
    <path d="M1442 232 h28 v58 l-14 -13 l-14 13 Z" fill="#FF6B4A"></path>
    <path d="M1442 232 h28 v10 l-28 0 Z" fill="#E0552F" opacity="0.7"></path>
    <g transform="translate(1320,254)">
      <rect width="64" height="46" rx="5" fill="#373E68"></rect><rect x="72" width="64" height="46" rx="5" fill="#373E68"></rect>
      <rect y="54" width="64" height="46" rx="5" fill="#373E68"></rect><rect x="72" y="54" width="64" height="46" rx="5" fill="#373E68"></rect>
      <path d="M22 36 l10 -16 l10 16 Z" fill="#36E0E6" opacity="0.45"></path><circle cx="104" cy="23" r="10" fill="#FF6B4A" opacity="0.45"></circle>
    </g>
    <g transform="translate(1322,366)"><circle cx="13" cy="13" r="13" fill="#36E0E6" opacity="0.2"></circle><path d="M7 13 l4 5 l9 -10" stroke="#5BEDF1" stroke-width="2.8" fill="none" stroke-linecap="round" stroke-linejoin="round"></path></g>
    <rect x="1358" y="366" width="108" height="9" rx="4.5" fill="#4A5176"></rect>
    <rect x="1320" y="422" width="146" height="9" rx="4.5" fill="#434a6e"></rect>
  </g>

  
  <g transform="rotate(-9 1560 408)">
    <g filter="url(#f_bloom)" opacity="0.7"><rect x="1498" y="336" width="120" height="154" rx="15" fill="#36E0E6"></rect></g>
    <rect x="1498" y="336" width="120" height="154" rx="15" fill="url(#h_cardface)" stroke="url(#h_card)" stroke-width="2.5"></rect>
    <g transform="translate(1512,352)">
      <rect width="42" height="30" rx="4" fill="#1E4858"></rect><rect x="48" width="42" height="30" rx="4" fill="#1E4858"></rect>
      <rect y="36" width="42" height="30" rx="4" fill="#1E4858"></rect><rect x="48" y="36" width="42" height="30" rx="4" fill="#1E4858"></rect>
    </g>
    <g transform="translate(1512,430)"><circle cx="11" cy="11" r="11" fill="#36E0E6" opacity="0.3"></circle><path d="M6 11 l3.5 4 l7 -8" stroke="#9BF6F8" stroke-width="2.6" fill="none" stroke-linecap="round" stroke-linejoin="round"></path></g>
    <rect x="1542" y="426" width="60" height="8" rx="4" fill="#5BEDF1"></rect>
    <rect x="1512" y="456" width="90" height="8" rx="4" fill="#36E0E6" opacity="0.55"></rect>
    <rect x="1512" y="474" width="64" height="8" rx="4" fill="#36E0E6" opacity="0.35"></rect>
    <use href="#spk" transform="translate(1610,338) scale(0.8)" fill="#BFF6F8"></use>
  </g>

  
  <g id="mascot">
    <ellipse cx="1804" cy="612" rx="120" ry="22" fill="#05060E" opacity="0.5"></ellipse>
    <g filter="url(#f_bloom)" opacity="0.14"><ellipse cx="1804" cy="330" rx="150" ry="230" fill="#36E0E6"></ellipse></g>

    
    <path d="M1804 192 C1738 192 1702 242 1706 322 C1708 356 1719 380 1734 390 C1748 364 1756 334 1756 300 C1756 258 1774 222 1804 210 C1834 222 1852 258 1852 300 C1852 334 1860 364 1874 390 C1889 380 1900 356 1902 322 C1906 242 1870 192 1804 192 Z" fill="url(#h_hairback)"></path>

    
    <path d="M1824 522 c12 36 14 72 10 108 l-2 16 h32 l8 -126 Z" fill="#F3CDA0"></path>
    <path d="M1824 522 c7 22 10 44 10 66 l4 0 c1 -24 -1 -48 -6 -70 Z" fill="#E8B488" opacity="0.6"></path>
    <path d="M1774 522 c-10 38 -12 76 -8 112 l2 14 h34 l8 -130 Z" fill="#FFE0BF"></path>
    
    <g>
      <rect x="1830" y="614" width="34" height="30" rx="6" fill="#EEF0F8"></rect><rect x="1830" y="620" width="34" height="3" fill="#1A1D33"></rect><rect x="1830" y="628" width="34" height="3" fill="#1A1D33"></rect>
      <path d="M1824 640 h44 c13 0 21 9 21 17 v6 h-72 l7 -23 Z" fill="#EEF0F8"></path>
      <path d="M1824 652 h65 v5 c0 4 -4 6 -9 6 h-58 Z" fill="#1A1D33"></path>
      <path d="M1850 642 l16 6 l-3 11 l-16 -4 Z" fill="#FF6B4A"></path>
    </g>
    <g>
      <rect x="1772" y="614" width="34" height="30" rx="6" fill="#FBFCFF"></rect><rect x="1772" y="620" width="34" height="3" fill="#1A1D33"></rect><rect x="1772" y="628" width="34" height="3" fill="#1A1D33"></rect>
      <path d="M1766 640 h44 c13 0 21 9 21 17 v6 h-72 l7 -23 Z" fill="#FBFCFF"></path>
      <path d="M1760 652 h66 v5 c0 4 -4 6 -9 6 h-59 Z" fill="#1A1D33"></path>
      <path d="M1792 642 l16 6 l-3 11 l-16 -4 Z" fill="#FF6B4A"></path>
      <path d="M1774 644 l12 -3 l3 11 l-17 0 Z" fill="#C9CCDE" opacity="0.85"></path>
    </g>

    
    <path d="M1758 452 c26 -9 80 -9 106 0 c6 28 6 52 0 74 c-11 6 -23 4 -31 -5 l-5 -30 l-6 32 c-13 4 -29 4 -42 0 l-6 -32 l-5 30 c-8 9 -21 11 -31 5 c-6 -22 -6 -46 0 -74 Z" fill="url(#h_denim)"></path>
    <path d="M1758 452 c26 -9 80 -9 106 0 c2 8 3 17 4 25 c-38 -11 -76 -11 -114 0 c1 -8 2 -17 4 -25 Z" fill="#7EA0CA"></path>
    <path d="M1806 460 v64" stroke="#3E587C" stroke-width="2" opacity="0.6"></path>
    <path d="M1770 472 q-5 20 0 44" stroke="#3E587C" stroke-width="1.5" fill="none" opacity="0.5"></path>
    <path d="M1844 472 q5 20 0 44" stroke="#3E587C" stroke-width="1.5" fill="none" opacity="0.5"></path>
    <path d="M1760 524 q6 6 14 7" stroke="#A7C0DE" stroke-width="2" fill="none" opacity="0.5"></path>
    <path d="M1864 524 q-6 6 -14 7" stroke="#A7C0DE" stroke-width="2" fill="none" opacity="0.5"></path>
    <rect x="1754" y="446" width="116" height="14" rx="3" fill="#14151F"></rect>
    <rect x="1802" y="446" width="18" height="14" rx="2" fill="#C9CCDE"></rect><rect x="1806" y="450" width="9" height="6" rx="1" fill="#14151F"></rect>

    
    <path d="M1768 344 c22 -9 52 -9 74 0 c6 36 8 76 4 110 c-26 9 -58 9 -84 0 c-4 -34 -2 -74 6 -110 Z" fill="#F6F7FC"></path>
    <path d="M1768 344 c9 -4 17 -7 23 -8 c-2 40 -2 82 2 122 c-9 -1 -19 -3 -27 -6 c-4 -34 -2 -74 2 -108 Z" fill="#DDE0EC" opacity="0.7"></path>
    
    <g transform="translate(1805,388)">
      <path d="M0 0 c12 0 21 9 21 21 c0 15 -21 33 -21 33 c0 0 -21 -18 -21 -33 c0 -12 9 -21 21 -21 Z" fill="#FF6B4A"></path>
      <path d="M0 0 c12 0 21 9 21 21 c0 6 -3 12 -7 18 c-2 -25 -18 -34 -29 -36 c4 -2 9 -3 15 -3 Z" fill="#E0552F" opacity="0.5"></path>
      <path d="M-7 12 l0 19 l14 -9.5 Z" fill="#36E0E6"></path>
    </g>

    
    <path d="M1752 348 c8 -9 21 -15 28 -17 c-4 42 -4 84 2 122 c-17 5 -30 2 -41 -4 c-9 -32 -4 -68 11 -101 Z" fill="#1A1D33" stroke="#0A0C18" stroke-width="2"></path>
    <path d="M1856 348 c-8 -9 -21 -15 -28 -17 c4 42 4 84 -2 122 c17 5 30 2 41 -4 c9 -32 4 -68 -11 -101 Z" fill="#22263F" stroke="#0A0C18" stroke-width="2"></path>
    <path d="M1752 348 c8 -9 21 -15 28 -17 c-2 16 -3 33 -3 50 c-12 -2 -22 2 -30 12 c-2 -16 1 -32 5 -45 Z" fill="#0F1224" opacity="0.55"></path>
    <path d="M1780 338 l24 0 l-4 17 l-16 0 Z" fill="#2A2F4D"></path>
    <path d="M1752 452 c33 9 71 9 104 0 l-3 13 c-33 9 -65 9 -98 0 Z" fill="#12152A"></path>

    
    <g transform="rotate(8 1872 452)">
      <rect x="1846" y="410" width="58" height="80" rx="8" fill="#2A3156" stroke="#474E76" stroke-width="1.5"></rect>
      <rect x="1840" y="416" width="58" height="80" rx="8" fill="#242A48" stroke="#3A4166" stroke-width="1.5"></rect>
      <path d="M1882 416 h14 v26 l-7 -6 l-7 6 Z" fill="#FF6B4A"></path>
      <rect x="1850" y="430" width="40" height="6" rx="3" fill="#3A4063"></rect>
      <rect x="1850" y="444" width="30" height="6" rx="3" fill="#30354F"></rect>
    </g>
    <path d="M1850 360 c18 6 30 24 33 50 c3 26 -1 50 -11 66 l-22 -8 c8 -18 11 -40 7 -62 c-3 -16 -9 -34 -19 -44 Z" fill="#1A1D33" stroke="#0A0C18" stroke-width="2"></path>
    <path d="M1868 364 c11 8 17 24 19 44 l-13 2 c-3 -18 -8 -32 -17 -40 Z" fill="#F4F5FB" opacity="0.92"></path>
    <path d="M1845 474 c8 5 17 5 25 0 c4 6 4 14 0 20 c-9 6 -22 6 -30 -2 c-2 -6 0 -13 5 -18 Z" fill="#FFE0BF"></path>

    
    <path d="M1758 356 c-30 2 -64 14 -98 36 c14 12 18 30 12 46 c30 -18 60 -28 88 -30 Z" fill="#1A1D33" stroke="#0A0C18" stroke-width="2"></path>
    <path d="M1748 372 c-26 4 -56 16 -84 34 c6 6 9 14 9 22 c26 -16 52 -26 78 -30 Z" fill="#F4F5FB" opacity="0.92"></path>
    <g transform="translate(1700,392)">
      <circle r="16" fill="#0F2638"></circle><circle r="16" fill="none" stroke="#4FE9EE" stroke-width="2"></circle>
      <path d="M0 -8 c6 0 11 5 11 11 c0 8 -11 16 -11 16 c0 0 -11 -8 -11 -16 c0 -6 5 -11 11 -11 Z" fill="#FF6B4A"></path>
      <path d="M-3.5 5 l0 10 l7 -5 Z" fill="#36E0E6"></path>
    </g>
    <path d="M1672 470 c-24 10 -50 10 -74 -2 c-2 8 -6 15 -12 20 c26 16 56 18 84 8 Z" fill="#1A1D33" stroke="#0A0C18" stroke-width="2"></path>
    <path d="M1604 478 c-12 -3 -19 0 -24 8 c5 11 16 17 29 16 c7 -1 11 -6 10 -13 c-1 -6 -7 -9 -15 -11 Z" fill="#FFE0BF"></path>

    
    <path d="M1760 332 c15 8 47 8 62 0 c4 9 4 17 0 24 c-19 9 -47 9 -64 0 c-4 -7 -4 -15 2 -24 Z" fill="#1A1C2A"></path>
    <circle cx="1756" cy="340" r="13" fill="#15161F"></circle><circle cx="1756" cy="340" r="13" fill="none" stroke="#2A2C3C" stroke-width="2"></circle>
    <circle cx="1756" cy="340" r="7" fill="none" stroke="#4FE9EE" stroke-width="2.8"></circle>
    <circle cx="1826" cy="340" r="13" fill="#1E2032"></circle><circle cx="1826" cy="340" r="7" fill="none" stroke="#4FE9EE" stroke-width="2.4" opacity="0.7"></circle>

    
    <path d="M1782 302 h40 c0 13 2 24 7 33 c-17 10 -43 10 -60 0 c5 -9 7 -20 7 -33 Z" fill="#F3CDA0"></path>
    <path d="M1782 302 h40 c0 6 1 12 2 17 c-15 6 -32 6 -46 0 c2 -5 4 -11 4 -17 Z" fill="#E8B488" opacity="0.55"></path>

    
    <path d="M1758 236 c0 -29 19 -50 46 -50 c27 0 45 20 46 48 c1 25 -6 52 -21 71 c-9 12 -17 19 -25 19 c-8 0 -16 -7 -25 -19 c-14 -19 -21 -44 -21 -69 Z" fill="#FFE0BF"></path>
    <path d="M1758 252 c-2 19 3 40 14 55 c-10 -3 -17 -15 -21 -32 c-3 -12 -2 -23 7 -23 Z" fill="#F2C79C" opacity="0.5"></path>
    
    <path d="M1772 234 c12 -6 60 -6 72 0 c-2 7 -5 12 -9 14 c-18 -6 -36 -6 -54 0 c-4 -2 -7 -7 -9 -14 Z" fill="#E8B488" opacity="0.3"></path>

    
    <path d="M1816 196 c30 -14 62 -10 82 12 c20 22 24 54 12 84 c-9 -26 -26 -46 -48 -54 c14 22 18 50 10 78 l-16 -4 c8 -30 4 -62 -12 -88 c-12 -10 -24 -16 -28 -28 Z" fill="#FF8FB4"></path>
    <path d="M1858 222 c18 14 26 38 22 66 c-9 -22 -22 -40 -40 -50 Z" fill="#FFB8D0" opacity="0.8"></path>
    <ellipse cx="1818" cy="202" rx="14" ry="10" fill="#F06B98"></ellipse>
    <path d="M1756 246 c-7 -38 19 -64 50 -64 c30 0 52 22 50 56 c-9 -16 -19 -27 -31 -31 c6 13 5 25 -2 35 c-9 -16 -20 -25 -34 -25 c5 13 2 25 -5 35 c-9 -10 -20 -14 -28 -7 Z" fill="#FF8FB4"></path>
    <path d="M1773 222 c-3 18 -2 34 5 46 c-9 -3 -15 -14 -17 -30 c-1 -10 4 -17 12 -16 Z" fill="#FF8FB4"></path>
    <path d="M1804 224 c-1 20 0 36 4 50 c-9 -4 -15 -16 -16 -32 c-1 -11 3 -18 12 -18 Z" fill="#FF93B7"></path>
    <path d="M1836 222 c3 18 2 34 -5 46 c9 -3 15 -14 17 -30 c1 -10 -4 -17 -12 -16 Z" fill="#FF8FB4"></path>
    <path d="M1772 200 c-9 12 -13 30 -11 48 l9 -2 c0 -16 4 -32 11 -44 Z" fill="#FFB8D0" opacity="0.75"></path>
    <path d="M1800 188 c14 0 27 8 33 22 c-8 -7 -18 -11 -30 -11 Z" fill="#FFC8DD" opacity="0.7"></path>

    
    <path d="M1760 238 C1742 272 1730 322 1728 370 C1726 414 1730 466 1738 508 C1747 486 1753 456 1755 422 C1757 372 1755 312 1768 268 C1772 256 1764 246 1760 238 Z" fill="url(#h_hair)"></path>
    <path d="M1762 252 c-10 30 -14 66 -12 104 l7 0 c0 -36 4 -72 12 -98 Z" fill="#FFB8D0" opacity="0.5"></path>
    <path d="M1848 238 C1866 272 1878 322 1880 370 C1882 414 1878 466 1870 508 C1861 486 1855 456 1853 422 C1851 372 1853 312 1840 268 C1836 256 1844 246 1848 238 Z" fill="url(#h_hair)"></path>
    <path d="M1846 252 c10 30 14 66 12 104 l-7 0 c0 -36 -4 -72 -12 -98 Z" fill="#FFB8D0" opacity="0.45"></path>
    
    <path d="M1878 300 c26 6 44 26 50 54 c-12 -18 -28 -30 -48 -34 Z" fill="#FF8FB4"></path>
    <path d="M1880 306 c20 6 34 20 42 40 c-12 -14 -26 -24 -44 -28 Z" fill="#36E0E6" opacity="0.0"></path>

    
    <path d="M1766 246 q12 -7 24 -1" stroke="#C2607E" stroke-width="3.2" fill="none" stroke-linecap="round"></path>
    <path d="M1808 245 q11 -5 21 1" stroke="#C2607E" stroke-width="3.2" fill="none" stroke-linecap="round"></path>
    <g>
      <path d="M1762 260 c7 -10 23 -10 30 0 c-2 13 -8 20 -15 20 c-7 0 -13 -7 -15 -20 Z" fill="#FFFFFF"></path>
      <path d="M1764 258 c6 -7 22 -7 28 0 c0 13 -6 22 -14 22 c-8 0 -14 -9 -14 -22 Z" fill="url(#h_iris)"></path>
      <circle cx="1778" cy="266" r="4.4" fill="#2A0810"></circle>
      <circle cx="1773" cy="259" r="3" fill="#FFFFFF"></circle>
      <circle cx="1783" cy="270" r="1.8" fill="#BFF6F8"></circle>
      <path d="M1761 258 q15 -7 31 0" stroke="#3A0E18" stroke-width="3.4" fill="none" stroke-linecap="round"></path>
      <path d="M1808 259 c7 -10 23 -10 30 0 c-2 13 -8 20 -15 20 c-7 0 -13 -7 -15 -20 Z" fill="#FFFFFF"></path>
      <path d="M1810 257 c6 -7 22 -7 28 0 c0 13 -6 22 -14 22 c-8 0 -14 -9 -14 -22 Z" fill="url(#h_iris)"></path>
      <circle cx="1824" cy="265" r="4.4" fill="#2A0810"></circle>
      <circle cx="1819" cy="258" r="3" fill="#FFFFFF"></circle>
      <circle cx="1829" cy="269" r="1.8" fill="#BFF6F8"></circle>
      <path d="M1807 257 q15 -7 31 0" stroke="#3A0E18" stroke-width="3.4" fill="none" stroke-linecap="round"></path>
    </g>
    <path d="M1796 284 l-3 9 l5 0" stroke="#E0A77F" stroke-width="2" fill="none" stroke-linecap="round" stroke-linejoin="round"></path>
    <path d="M1789 300 q10 7 20 0" stroke="#D06A53" stroke-width="2.6" fill="none" stroke-linecap="round"></path>
    <ellipse cx="1772" cy="288" rx="9" ry="5" fill="#FF8FB4" opacity="0.4"></ellipse>
    <ellipse cx="1824" cy="287" rx="9" ry="5" fill="#FF8FB4" opacity="0.4"></ellipse>

    
    <path d="M1902 322 c4 60 -2 132 -16 196 c-5 22 -12 42 -22 58" stroke="#4FE9EE" stroke-width="2.4" fill="none" opacity="0.5" stroke-linecap="round"></path>
    <path d="M1706 322 c-6 40 -8 96 -2 152 c3 30 4 64 2 96" stroke="#FF7A52" stroke-width="2.2" fill="none" opacity="0.32" stroke-linecap="round"></path>
    <path d="M1583 470 c8 6 18 8 27 6" stroke="#4FE9EE" stroke-width="2" fill="none" opacity="0.5" stroke-linecap="round"></path>
  </g>

  
  <g fill="#BFF6F8">
    <use href="#spk" transform="translate(792,150) scale(1.0)" opacity="0.9"></use>
    <use href="#spk" transform="translate(1262,168) scale(0.7)" opacity="0.7"></use>
    <use href="#spk" transform="translate(1492,548) scale(0.85)" opacity="0.8"></use>
    <use href="#spk" transform="translate(1648,250) scale(0.6)" opacity="0.6"></use>
    <use href="#spk" transform="translate(2010,420) scale(0.8)" opacity="0.7"></use>
  </g>
  <g fill="#FFB39C">
    <use href="#spk" transform="translate(1392,118) scale(0.7)" opacity="0.75"></use>
    <use href="#spk" transform="translate(1156,560) scale(0.6)" opacity="0.6"></use>
  </g>
  <g fill="#FFFFFF" opacity="0.5">
    <circle cx="900" cy="500" r="2.5"></circle><circle cx="1240" cy="520" r="2"></circle><circle cx="1700" cy="170" r="2.2"></circle>
    <circle cx="1960" cy="320" r="2"></circle><circle cx="1086" cy="200" r="2"></circle><circle cx="1560" cy="150" r="2.4"></circle>
  </g>

  
  <rect width="2200" height="680" fill="url(#h_vign)"></rect>
  <g stroke="#F4F5FB" stroke-width="1" opacity="0.05">
    <line x1="120" y1="474" x2="430" y2="474"></line>
    <line x1="120" y1="504" x2="360" y2="504"></line>
  </g>
  <g fill="#36E0E6" opacity="0.18"><circle cx="120" cy="474" r="3"></circle><circle cx="120" cy="504" r="3"></circle></g>
</svg>