<svg xmlns="http://www.w3.org/2000/svg" width="64" height="64" viewBox="0 0 64 64" fill="none" role="img" aria-label="DondeAnime Género">
  <title>Género</title>
  <defs><filter id="gW" x="-50%" y="-50%" width="200%" height="200%"><feGaussianBlur stdDeviation="0.7" result="b"></feGaussianBlur><feMerge><feMergeNode in="b"></feMergeNode><feMergeNode in="SourceGraphic"></feMergeNode></feMerge></filter><filter id="gC" x="-65%" y="-65%" width="230%" height="230%"><feGaussianBlur stdDeviation="1.3" result="b"></feGaussianBlur><feMerge><feMergeNode in="b"></feMergeNode><feMergeNode in="SourceGraphic"></feMergeNode></feMerge></filter><filter id="gO" x="-75%" y="-75%" width="250%" height="250%"><feGaussianBlur stdDeviation="1.5" result="b"></feGaussianBlur><feMerge><feMergeNode in="b"></feMergeNode><feMergeNode in="SourceGraphic"></feMergeNode></feMerge></filter></defs>
  <g fill="none" stroke-linecap="round" stroke-linejoin="round"><path d="M40 13.3 L56.8 30.1 A6.4 6.4 0 0 1 56.8 39.2 L45.3 50.7" stroke="#36E0E6" stroke-width="3" filter="url(#gC)"></path><path d="M25.6 14.9 A5.33 5.33 0 0 0 21.8 13.3 H8 A2.67 2.67 0 0 0 5.3 16 V29.8 A5.33 5.33 0 0 0 6.9 33.6 L21.3 48 A7.55 7.55 0 0 0 32 48 L42.7 37.3 A7.55 7.55 0 0 0 42.7 26.7 Z" stroke="#F4F5FB" stroke-width="3" filter="url(#gW)"></path></g><circle cx="15.5" cy="23" r="2.3" fill="#36E0E6" filter="url(#gC)"></circle>
</svg>