<svg xmlns="http://www.w3.org/2000/svg" width="64" height="64" viewBox="0 0 64 64" fill="none" role="img" aria-label="DondeAnime Temporada">
  <title>Temporada</title>
  <defs><filter id="gW" x="-50%" y="-50%" width="200%" height="200%"><feGaussianBlur stdDeviation="0.7" result="b"></feGaussianBlur><feMerge><feMergeNode in="b"></feMergeNode><feMergeNode in="SourceGraphic"></feMergeNode></feMerge></filter><filter id="gC" x="-65%" y="-65%" width="230%" height="230%"><feGaussianBlur stdDeviation="1.3" result="b"></feGaussianBlur><feMerge><feMergeNode in="b"></feMergeNode><feMergeNode in="SourceGraphic"></feMergeNode></feMerge></filter><filter id="gO" x="-75%" y="-75%" width="250%" height="250%"><feGaussianBlur stdDeviation="1.5" result="b"></feGaussianBlur><feMerge><feMergeNode in="b"></feMergeNode><feMergeNode in="SourceGraphic"></feMergeNode></feMerge></filter></defs>
  <circle cx="32" cy="32" r="13" fill="none" stroke="#F4F5FB" stroke-width="3" filter="url(#gW)"></circle><g fill="none" stroke="#36E0E6" stroke-width="2.6" stroke-linecap="round" filter="url(#gC)"><circle cx="32" cy="14" r="3" fill="#36E0E6"></circle><line x1="32" y1="6.5" x2="32" y2="8.4"></line><line x1="39" y1="14" x2="40.8" y2="14"></line><line x1="25" y1="14" x2="23.2" y2="14"></line><line x1="36.9" y1="9.1" x2="38.2" y2="7.8"></line><line x1="27.1" y1="9.1" x2="25.8" y2="7.8"></line></g><g fill="none" stroke="#F4F5FB" stroke-width="2.6" stroke-linecap="round" stroke-linejoin="round" filter="url(#gW)"><path d="M49 27 C52.4 29 52.4 35 49 37 C45.6 35 45.6 29 49 27 Z"></path><line x1="49" y1="29" x2="49" y2="35"></line><line x1="32" y1="45.5" x2="32" y2="54.5"></line><line x1="28.1" y1="47.75" x2="35.9" y2="52.25"></line><line x1="35.9" y1="47.75" x2="28.1" y2="52.25"></line><line x1="15" y1="37.5" x2="15" y2="29.5"></line><path d="M15 31.5 L11.3 27.8"></path><path d="M15 31.5 L18.7 27.8"></path></g>
</svg>