<svg xmlns="http://www.w3.org/2000/svg" width="600" height="600" viewBox="0 0 600 600"><defs><radialGradient id="haloCyan" cx="50%" cy="50%" r="50%"><stop offset="0%" stop-color="#36E0E6" stop-opacity="0.9"></stop><stop offset="45%" stop-color="#36E0E6" stop-opacity="0.28"></stop><stop offset="100%" stop-color="#36E0E6" stop-opacity="0"></stop></radialGradient><radialGradient id="haloCoral" cx="50%" cy="50%" r="50%"><stop offset="0%" stop-color="#FF6B4A" stop-opacity="0.9"></stop><stop offset="45%" stop-color="#FF6B4A" stop-opacity="0.28"></stop><stop offset="100%" stop-color="#FF6B4A" stop-opacity="0"></stop></radialGradient></defs><rect width="600" height="600" fill="#0E1020"></rect><g id="tm"><g stroke="#F4F5FB" fill="none" stroke-width="0.6" stroke-dasharray="1 7" stroke-linecap="round" opacity="0.05"><path d="M0 150 L0 150 L14 153.12 L28 155.98 L42 158.32 L56 159.96 L70 160.74 L84 160.61 L98 159.57 L112 157.72 L126 155.2 L140 152.25 L154 149.1 L168 146.02 L182 143.29 L196 141.13 L210 139.73 L224 139.2 L238 139.6 L252 140.88 L266 142.94 L280 145.61 L294 148.65 L308 151.8 L322 154.8 L336 157.39 L350 159.35 L364 160.51 L378 160.78 L392 160.12 L406 158.6 L420 156.35 L434 153.55 L448 150.45 L462 147.31 L476 144.41 L490 141.97 L504 140.23 L518 139.32 L532 139.32 L546 140.23 L560 141.97 L574 144.41 L588 147.31"></path><path d="M0 300 L0 300 L14 303.12 L28 305.98 L42 308.32 L56 309.96 L70 310.74 L84 310.61 L98 309.57 L112 307.72 L126 305.2 L140 302.25 L154 299.1 L168 296.02 L182 293.29 L196 291.13 L210 289.73 L224 289.2 L238 289.6 L252 290.88 L266 292.94 L280 295.61 L294 298.65 L308 301.8 L322 304.8 L336 307.39 L350 309.35 L364 310.51 L378 310.78 L392 310.12 L406 308.6 L420 306.35 L434 303.55 L448 300.45 L462 297.31 L476 294.41 L490 291.97 L504 290.23 L518 289.32 L532 289.32 L546 290.23 L560 291.97 L574 294.41 L588 297.31"></path><path d="M0 450 L0 450 L14 453.12 L28 455.98 L42 458.32 L56 459.96 L70 460.74 L84 460.61 L98 459.57 L112 457.72 L126 455.2 L140 452.25 L154 449.1 L168 446.02 L182 443.29 L196 441.13 L210 439.73 L224 439.2 L238 439.6 L252 440.88 L266 442.94 L280 445.61 L294 448.65 L308 451.8 L322 454.8 L336 457.39 L350 459.35 L364 460.51 L378 460.78 L392 460.12 L406 458.6 L420 456.35 L434 453.55 L448 450.45 L462 447.31 L476 444.41 L490 441.97 L504 440.23 L518 439.32 L532 439.32 L546 440.23 L560 441.97 L574 444.41 L588 447.31"></path><path d="M150 0 L150 0 L153.12 14 L155.98 28 L158.32 42 L159.96 56 L160.74 70 L160.61 84 L159.57 98 L157.72 112 L155.2 126 L152.25 140 L149.1 154 L146.02 168 L143.29 182 L141.13 196 L139.73 210 L139.2 224 L139.6 238 L140.88 252 L142.94 266 L145.61 280 L148.65 294 L151.8 308 L154.8 322 L157.39 336 L159.35 350 L160.51 364 L160.78 378 L160.12 392 L158.6 406 L156.35 420 L153.55 434 L150.45 448 L147.31 462 L144.41 476 L141.97 490 L140.23 504 L139.32 518 L139.32 532 L140.23 546 L141.97 560 L144.41 574 L147.31 588"></path><path d="M300 0 L300 0 L303.12 14 L305.98 28 L308.32 42 L309.96 56 L310.74 70 L310.61 84 L309.57 98 L307.72 112 L305.2 126 L302.25 140 L299.1 154 L296.02 168 L293.29 182 L291.13 196 L289.73 210 L289.2 224 L289.6 238 L290.88 252 L292.94 266 L295.61 280 L298.65 294 L301.8 308 L304.8 322 L307.39 336 L309.35 350 L310.51 364 L310.78 378 L310.12 392 L308.6 406 L306.35 420 L303.55 434 L300.45 448 L297.31 462 L294.41 476 L291.97 490 L290.23 504 L289.32 518 L289.32 532 L290.23 546 L291.97 560 L294.41 574 L297.31 588"></path><path d="M450 0 L450 0 L453.12 14 L455.98 28 L458.32 42 L459.96 56 L460.74 70 L460.61 84 L459.57 98 L457.72 112 L455.2 126 L452.25 140 L449.1 154 L446.02 168 L443.29 182 L441.13 196 L439.73 210 L439.2 224 L439.6 238 L440.88 252 L442.94 266 L445.61 280 L448.65 294 L451.8 308 L454.8 322 L457.39 336 L459.35 350 L460.51 364 L460.78 378 L460.12 392 L458.6 406 L456.35 420 L453.55 434 L450.45 448 L447.31 462 L444.41 476 L441.97 490 L440.23 504 L439.32 518 L439.32 532 L440.23 546 L441.97 560 L444.41 574 L447.31 588"></path></g><g stroke="#F4F5FB" fill="none" stroke-width="0.7" stroke-linecap="round" stroke-linejoin="round" opacity="0.07"><path d="M425.41 167.45 L540.46 157.85 L638.01 102.74"></path><path d="M92.22 229.05 L189.44 150.26 L196.69 107.46 L145.49 63.2"></path><path d="M196.56 443.1 L228.93 474.38 L262.25 526.92 L295.08 443.47 L298.21 378.34"></path><path d="M539.63 21.37 L555.58 55.06 L540.96 102.64 L509.81 25.05 L583.66 13.63"></path></g><path d="M65.73 63.74 Q211.21 144.64 299.39 260.83" fill="none" stroke="#FF6B4A" stroke-width="0.8" stroke-dasharray="0.5 6" stroke-linecap="round" opacity="0.16"></path><path d="M236.38 39.4 Q234.35 -60.69 295.49 -174.13" fill="none" stroke="#36E0E6" stroke-width="0.8" stroke-dasharray="0.5 6" stroke-linecap="round" opacity="0.16"></path><g fill="#F4F5FB"><circle cx="554.38" cy="312.56" r="0.48" opacity="0.06"></circle><circle cx="139.14" cy="552.07" r="0.47" opacity="0.06"></circle><circle cx="469.83" cy="114.14" r="0.41" opacity="0.06"></circle><circle cx="180.95" cy="543.1" r="0.42" opacity="0.06"></circle><circle cx="183.35" cy="29.49" r="0.41" opacity="0.06"></circle><circle cx="135.12" cy="369.1" r="0.55" opacity="0.06"></circle><circle cx="211.75" cy="47.61" r="0.59" opacity="0.06"></circle><circle cx="204.22" cy="162.13" r="0.41" opacity="0.06"></circle><circle cx="484.5" cy="72.09" r="0.37" opacity="0.06"></circle><circle cx="6.52" cy="425.8" r="0.74" opacity="0.06"></circle><circle cx="102.76" cy="350.11" r="0.35" opacity="0.06"></circle><circle cx="8.88" cy="388.32" r="0.42" opacity="0.06"></circle><circle cx="486.86" cy="313.14" r="0.45" opacity="0.06"></circle><circle cx="415.74" cy="478.06" r="0.64" opacity="0.06"></circle><circle cx="528.15" cy="433.63" r="0.69" opacity="0.06"></circle><circle cx="103.35" cy="279.08" r="0.68" opacity="0.06"></circle><circle cx="271.11" cy="214.8" r="0.49" opacity="0.06"></circle><circle cx="276.93" cy="176.94" r="0.36" opacity="0.06"></circle><circle cx="143.56" cy="76.14" r="0.63" opacity="0.06"></circle><circle cx="215.58" cy="586.52" r="0.73" opacity="0.06"></circle><circle cx="390.26" cy="180.25" r="0.74" opacity="0.06"></circle><circle cx="435.63" cy="530.73" r="0.65" opacity="0.06"></circle><circle cx="318.15" cy="33.01" r="0.37" opacity="0.06"></circle><circle cx="553.05" cy="338.67" r="0.39" opacity="0.06"></circle><circle cx="139.81" cy="577.76" r="0.75" opacity="0.06"></circle><circle cx="401.77" cy="44.14" r="0.58" opacity="0.06"></circle><circle cx="165.03" cy="107.47" r="0.44" opacity="0.06"></circle><circle cx="290.62" cy="500.54" r="0.51" opacity="0.06"></circle><circle cx="32.01" cy="220.12" r="0.62" opacity="0.06"></circle><circle cx="250.02" cy="182.9" r="0.47" opacity="0.06"></circle><circle cx="584.62" cy="304.68" r="0.56" opacity="0.06"></circle><circle cx="492.7" cy="15.86" r="0.45" opacity="0.06"></circle><circle cx="142.47" cy="16.59" r="0.73" opacity="0.06"></circle><circle cx="128.86" cy="168.52" r="0.49" opacity="0.06"></circle><circle cx="503.59" cy="462.48" r="0.46" opacity="0.06"></circle><circle cx="62.59" cy="278.6" r="0.37" opacity="0.06"></circle><circle cx="531.25" cy="452.02" r="0.69" opacity="0.06"></circle><circle cx="326.47" cy="27.51" r="0.43" opacity="0.06"></circle><circle cx="289.11" cy="121.61" r="0.7" opacity="0.06"></circle><circle cx="223.4" cy="317" r="0.37" opacity="0.06"></circle><circle cx="60.98" cy="321.91" r="0.46" opacity="0.06"></circle><circle cx="303.83" cy="240.43" r="0.49" opacity="0.06"></circle><circle cx="582.25" cy="280" r="0.7" opacity="0.06"></circle><circle cx="342.84" cy="330.6" r="0.44" opacity="0.06"></circle><circle cx="295.54" cy="588.73" r="0.64" opacity="0.06"></circle><circle cx="439.31" cy="13.57" r="0.55" opacity="0.06"></circle><circle cx="461.15" cy="551.71" r="0.66" opacity="0.06"></circle><circle cx="259.7" cy="432.11" r="0.64" opacity="0.06"></circle><circle cx="57.88" cy="248.34" r="0.45" opacity="0.06"></circle><circle cx="498.08" cy="369.07" r="0.74" opacity="0.06"></circle><circle cx="173.34" cy="411.72" r="0.69" opacity="0.06"></circle><circle cx="311.29" cy="22.5" r="0.72" opacity="0.06"></circle><circle cx="457.08" cy="597.9" r="0.56" opacity="0.06"></circle><circle cx="198.26" cy="304" r="0.6" opacity="0.06"></circle><circle cx="543.83" cy="508.85" r="0.46" opacity="0.06"></circle><circle cx="589.33" cy="208" r="0.41" opacity="0.06"></circle><circle cx="419.34" cy="558.59" r="0.73" opacity="0.06"></circle><circle cx="313.38" cy="205.44" r="0.57" opacity="0.06"></circle><circle cx="415.97" cy="337.61" r="0.57" opacity="0.06"></circle><circle cx="215.88" cy="332.17" r="0.49" opacity="0.06"></circle><circle cx="539.63" cy="21.37" r="1.18" opacity="0.1"></circle><circle cx="261.18" cy="21.71" r="1.17" opacity="0.1"></circle><circle cx="145.31" cy="486.97" r="1.04" opacity="0.09"></circle><circle cx="436.7" cy="470.43" r="1.3" opacity="0.1"></circle><circle cx="335.38" cy="286.33" r="1.31" opacity="0.1"></circle><circle cx="7.81" cy="418.31" r="1.35" opacity="0.1"></circle><circle cx="371.22" cy="199.13" r="1.13" opacity="0.1"></circle><circle cx="243.06" cy="373.83" r="1.16" opacity="0.1"></circle><circle cx="295.08" cy="443.47" r="1.75" opacity="0.12"></circle><circle cx="96.15" cy="456.01" r="1.74" opacity="0.12"></circle><circle cx="38.01" cy="102.74" r="1.29" opacity="0.1"></circle><circle cx="23.51" cy="569.21" r="1.21" opacity="0.1"></circle><circle cx="566.4" cy="563.29" r="1.59" opacity="0.11"></circle><circle cx="262.06" cy="164.32" r="1.2" opacity="0.1"></circle><circle cx="425.41" cy="167.45" r="1.76" opacity="0.12"></circle><circle cx="477.89" cy="587.21" r="1.19" opacity="0.1"></circle><circle cx="189.44" cy="150.26" r="1.35" opacity="0.1"></circle><circle cx="417.84" cy="340.24" r="1.45" opacity="0.11"></circle><circle cx="175.47" cy="563" r="1.76" opacity="0.12"></circle><circle cx="346.25" cy="82.42" r="1.02" opacity="0.09"></circle><circle cx="525.03" cy="531.35" r="1.46" opacity="0.11"></circle><circle cx="311.22" cy="98.06" r="1.21" opacity="0.1"></circle><circle cx="479.57" cy="337.69" r="1.19" opacity="0.1"></circle><circle cx="262.25" cy="526.92" r="1.5" opacity="0.11"></circle><circle cx="298.21" cy="378.34" r="1.68" opacity="0.11"></circle><circle cx="540.96" cy="102.64" r="1.56" opacity="0.11"></circle><circle cx="328.45" cy="380.29" r="1.12" opacity="0.1"></circle><circle cx="283.61" cy="311.85" r="1.24" opacity="0.1"></circle><circle cx="251.48" cy="213.91" r="1.27" opacity="0.1"></circle><circle cx="429.05" cy="310.85" r="1.06" opacity="0.09"></circle><circle cx="60.29" cy="25.72" r="1.38" opacity="0.1"></circle><circle cx="196.56" cy="443.1" r="1.27" opacity="0.1"></circle><circle cx="540.46" cy="157.85" r="1.13" opacity="0.1"></circle><circle cx="58.56" cy="489.86" r="1.17" opacity="0.1"></circle><circle cx="555.58" cy="55.06" r="1.18" opacity="0.1"></circle><circle cx="145.49" cy="63.2" r="1.14" opacity="0.1"></circle><circle cx="364.99" cy="389.79" r="1.52" opacity="0.11"></circle><circle cx="385.26" cy="124.73" r="1.38" opacity="0.1"></circle><circle cx="196.69" cy="107.46" r="1.09" opacity="0.1"></circle><circle cx="583.66" cy="13.63" r="1.09" opacity="0.1"></circle><circle cx="228.93" cy="474.38" r="1.56" opacity="0.11"></circle><circle cx="395.1" cy="10.62" r="1.38" opacity="0.1"></circle><circle cx="291.57" cy="410.92" r="1.15" opacity="0.1"></circle><circle cx="509.81" cy="25.05" r="1.39" opacity="0.1"></circle><circle cx="469.39" cy="422.89" r="1.32" opacity="0.1"></circle><circle cx="92.22" cy="229.05" r="1.12" opacity="0.1"></circle></g><circle cx="65.73" cy="61.72" r="27.24" fill="url(#haloCoral)" opacity="0.08"></circle><g transform="translate(53.63 50.12) scale(1.01)" fill="none" stroke="#FF6B4A" stroke-width="1.29" stroke-linejoin="round" opacity="0.22"><path d="M12 31.5C12 31.5 21.2 18.6 21.2 11.2A9.2 9.2 0 1 0 2.8 11.2C2.8 18.6 12 31.5 12 31.5Z"></path><circle cx="12" cy="11.2" r="3.1"></circle></g><circle cx="54.05" cy="314.82" r="25.93" fill="url(#haloCoral)" opacity="0.08"></circle><g fill="none" stroke="#FF6B4A" stroke-width="0.7" opacity="0.13"><circle cx="54.05" cy="323.46" r="15.36"></circle><circle cx="54.05" cy="323.46" r="24.01" opacity="0.6" stroke-dasharray="1.5 5"></circle></g><g transform="translate(42.52 303.77) scale(0.96)" fill="none" stroke="#FF6B4A" stroke-width="1.35" stroke-linejoin="round" opacity="0.22"><path d="M12 31.5C12 31.5 21.2 18.6 21.2 11.2A9.2 9.2 0 1 0 2.8 11.2C2.8 18.6 12 31.5 12 31.5Z"></path><path d="M9.4 7.6 16 11.2 9.4 14.8Z" fill="#FF6B4A" stroke="none" opacity="0.85"></path></g><circle cx="295.49" cy="424.11" r="23.69" fill="url(#haloCyan)" opacity="0.08"></circle><g transform="translate(284.96 414.02) scale(0.88)" fill="none" stroke="#36E0E6" stroke-width="1.48" stroke-linejoin="round" opacity="0.22"><path d="M12 31.5C12 31.5 21.2 18.6 21.2 11.2A9.2 9.2 0 1 0 2.8 11.2C2.8 18.6 12 31.5 12 31.5Z"></path><circle cx="12" cy="11.2" r="3.1"></circle></g><circle cx="236.38" cy="37.72" r="22.65" fill="url(#haloCyan)" opacity="0.08"></circle><g transform="translate(226.31 28.07) scale(0.84)" fill="none" stroke="#36E0E6" stroke-width="1.55" stroke-linejoin="round" opacity="0.22"><path d="M12 31.5C12 31.5 21.2 18.6 21.2 11.2A9.2 9.2 0 1 0 2.8 11.2C2.8 18.6 12 31.5 12 31.5Z"></path><circle cx="12" cy="11.2" r="3.1"></circle></g><circle cx="299.39" cy="259.12" r="23.16" fill="url(#haloCyan)" opacity="0.08"></circle><g fill="none" stroke="#36E0E6" stroke-width="0.7" opacity="0.13"><circle cx="299.39" cy="266.84" r="13.73"></circle><circle cx="299.39" cy="266.84" r="21.45" opacity="0.6" stroke-dasharray="1.5 5"></circle></g><g transform="translate(289.1 249.25) scale(0.86)" fill="none" stroke="#36E0E6" stroke-width="1.52" stroke-linejoin="round" opacity="0.22"><path d="M12 31.5C12 31.5 21.2 18.6 21.2 11.2A9.2 9.2 0 1 0 2.8 11.2C2.8 18.6 12 31.5 12 31.5Z"></path><path d="M9.4 7.6 16 11.2 9.4 14.8Z" fill="#36E0E6" stroke="none" opacity="0.85"></path></g><circle cx="452.51" cy="130.29" r="26.37" fill="url(#haloCyan)" opacity="0.08"></circle><g transform="translate(440.79 119.06) scale(0.98)" fill="none" stroke="#36E0E6" stroke-width="1.33" stroke-linejoin="round" opacity="0.22"><path d="M12 31.5C12 31.5 21.2 18.6 21.2 11.2A9.2 9.2 0 1 0 2.8 11.2C2.8 18.6 12 31.5 12 31.5Z"></path><path d="M9.4 7.6 16 11.2 9.4 14.8Z" fill="#36E0E6" stroke="none" opacity="0.85"></path></g><circle cx="517.47" cy="537.37" r="21.13" fill="url(#haloCyan)" opacity="0.08"></circle><g transform="translate(508.08 528.36) scale(0.78)" fill="none" stroke="#36E0E6" stroke-width="1.66" stroke-linejoin="round" opacity="0.22"><path d="M12 31.5C12 31.5 21.2 18.6 21.2 11.2A9.2 9.2 0 1 0 2.8 11.2C2.8 18.6 12 31.5 12 31.5Z"></path><path d="M9.4 7.6 16 11.2 9.4 14.8Z" fill="#36E0E6" stroke="none" opacity="0.85"></path></g></g><clipPath id="cp"><rect width="600" height="600"></rect></clipPath><g clip-path="url(#cp)"><use href="#tm" x="-600" y="-600"></use><use href="#tm" x="-600" y="0"></use><use href="#tm" x="-600" y="600"></use><use href="#tm" x="0" y="-600"></use><use href="#tm" x="0" y="0"></use><use href="#tm" x="0" y="600"></use><use href="#tm" x="600" y="-600"></use><use href="#tm" x="600" y="0"></use><use href="#tm" x="600" y="600"></use></g></svg>