<svg xmlns="http://www.w3.org/2000/svg" width="1200" height="630" viewBox="0 0 1200 630" fill="none">
  <defs>
    
    <clipPath id="panelClip">
      <rect x="24" y="24" width="1152" height="462" rx="26"></rect>
    </clipPath>
    <clipPath id="tickerClip">
      <rect x="24" y="516" width="1152" height="56" rx="14"></rect>
    </clipPath>

    
    <radialGradient id="warmAmbient" gradientUnits="userSpaceOnUse" cx="150" cy="440" r="500">
      <stop offset="0" stop-color="#FF6B4A" stop-opacity="0.085"></stop>
      <stop offset="1" stop-color="#FF6B4A" stop-opacity="0"></stop>
    </radialGradient>
    <radialGradient id="coolAmbient" gradientUnits="userSpaceOnUse" cx="1050" cy="150" r="560">
      <stop offset="0" stop-color="#36E0E6" stop-opacity="0.075"></stop>
      <stop offset="1" stop-color="#36E0E6" stop-opacity="0"></stop>
    </radialGradient>
    
    <radialGradient id="clusterGlow" gradientUnits="userSpaceOnUse" cx="216" cy="356" r="172">
      <stop offset="0" stop-color="#36E0E6" stop-opacity="0.30"></stop>
      <stop offset="0.55" stop-color="#36E0E6" stop-opacity="0.07"></stop>
      <stop offset="1" stop-color="#36E0E6" stop-opacity="0"></stop>
    </radialGradient>

    
    <filter id="glowSm" x="-80%" y="-80%" width="260%" height="260%">
      <feGaussianBlur stdDeviation="3.2"></feGaussianBlur>
    </filter>
    <filter id="glowMd" x="-120%" y="-120%" width="340%" height="340%">
      <feGaussianBlur stdDeviation="7"></feGaussianBlur>
    </filter>
    <filter id="glowLg" x="-160%" y="-160%" width="420%" height="420%">
      <feGaussianBlur stdDeviation="15"></feGaussianBlur>
    </filter>
  </defs>

  
  <rect x="0" y="0" width="1200" height="630" fill="#0E1020"></rect>

  
  <g clip-path="url(#panelClip)">
    <rect x="24" y="24" width="1152" height="462" fill="#1A1D33"></rect>
    
    <rect x="24" y="24" width="1152" height="462" fill="url(#warmAmbient)"></rect>
    <rect x="24" y="24" width="1152" height="462" fill="url(#coolAmbient)"></rect>

    
    <g fill="#F4F5FB">
      <circle cx="612" cy="92" r="2.2" opacity="0.10"></circle>
      <circle cx="708" cy="150" r="1.6" opacity="0.08"></circle>
      <circle cx="884" cy="98" r="2.6" opacity="0.09"></circle>
      <circle cx="980" cy="200" r="1.8" opacity="0.07"></circle>
      <circle cx="1064" cy="120" r="2.0" opacity="0.10"></circle>
      <circle cx="1120" cy="300" r="1.5" opacity="0.06"></circle>
      <circle cx="520" cy="180" r="1.6" opacity="0.07"></circle>
      <circle cx="760" cy="360" r="2.0" opacity="0.06"></circle>
      <circle cx="930" cy="408" r="1.7" opacity="0.06"></circle>
      <circle cx="1088" cy="420" r="2.2" opacity="0.08"></circle>
      <circle cx="430" cy="330" r="1.5" opacity="0.05"></circle>
      <circle cx="345" cy="120" r="1.8" opacity="0.07"></circle>
      <circle cx="150" cy="150" r="1.6" opacity="0.06"></circle>
      <circle cx="96" cy="250" r="1.5" opacity="0.05"></circle>
      <circle cx="640" cy="250" r="1.4" opacity="0.05"></circle>
      <circle cx="828" cy="300" r="1.5" opacity="0.05"></circle>
    </g>
    <circle cx="1010" cy="86" r="2.4" fill="#36E0E6" opacity="0.45" filter="url(#glowSm)"></circle>
    <circle cx="1010" cy="86" r="1.7" fill="#36E0E6" opacity="0.9"></circle>
    <circle cx="556" cy="300" r="2.0" fill="#36E0E6" opacity="0.30" filter="url(#glowSm)"></circle>
    <circle cx="556" cy="300" r="1.4" fill="#36E0E6" opacity="0.7"></circle>
    <circle cx="900" cy="170" r="2.2" fill="#FF6B4A" opacity="0.35" filter="url(#glowSm)"></circle>
    <circle cx="900" cy="170" r="1.5" fill="#FF6B4A" opacity="0.8"></circle>
    <circle cx="470" cy="430" r="2.0" fill="#FF6B4A" opacity="0.28" filter="url(#glowSm)"></circle>
  </g>
  
  <rect x="24.5" y="24.5" width="1151" height="461" rx="25.5" fill="none" stroke="#F4F5FB" stroke-opacity="0.06"></rect>

  
  <g clip-path="url(#panelClip)">
    
    <ellipse cx="216" cy="356" rx="172" ry="150" fill="url(#clusterGlow)"></ellipse>

    
    <g transform="rotate(-7 196 344)">
      <rect x="128" y="252" width="150" height="170" rx="12" fill="#1A1D33" stroke="#F4F5FB" stroke-opacity="0.28" stroke-width="2.5"></rect>
    </g>

    
    <rect x="120" y="262" width="152" height="168" rx="12" fill="#F4F5FB" fill-opacity="0.05" stroke="#F4F5FB" stroke-width="3"></rect>
    
    <rect x="138" y="280" width="94" height="12" rx="3" fill="#FF6B4A" opacity="0.55" filter="url(#glowSm)"></rect>
    <rect x="138" y="280" width="94" height="12" rx="3" fill="#FF6B4A"></rect>
    <rect x="138" y="300" width="116" height="4" rx="2" fill="#F4F5FB" fill-opacity="0.55"></rect>
    
    <g fill="#F4F5FB" fill-opacity="0.5">
      <rect x="138" y="318" width="52" height="4.5" rx="2.25"></rect>
      <rect x="138" y="330" width="46" height="4.5" rx="2.25"></rect>
      <rect x="138" y="342" width="52" height="4.5" rx="2.25"></rect>
      <rect x="138" y="354" width="38" height="4.5" rx="2.25"></rect>
    </g>
    
    <rect x="198" y="318" width="56" height="38" rx="4" fill="#36E0E6" fill-opacity="0.22" stroke="#36E0E6" stroke-opacity="0.7" stroke-width="1.5"></rect>
    <g fill="#F4F5FB" fill-opacity="0.5">
      <rect x="198" y="364" width="56" height="4.5" rx="2.25"></rect>
      <rect x="198" y="376" width="40" height="4.5" rx="2.25"></rect>
    </g>
    
    <g fill="#F4F5FB" fill-opacity="0.42">
      <rect x="138" y="396" width="116" height="4.5" rx="2.25"></rect>
      <rect x="138" y="408" width="88" height="4.5" rx="2.25"></rect>
    </g>

    
    <g transform="rotate(13 300 372)">
      
      <rect x="280" y="318" width="42" height="90" rx="21" fill="none" stroke="#36E0E6" stroke-opacity="0.6" stroke-width="6" filter="url(#glowMd)"></rect>
      
      <rect x="280" y="318" width="42" height="90" rx="21" fill="#1A1D33" stroke="#36E0E6" stroke-width="3"></rect>
      
      <g stroke="#36E0E6" stroke-width="2" stroke-opacity="0.75" stroke-linecap="round">
        <line x1="288" y1="340" x2="314" y2="340"></line>
        <line x1="288" y1="358" x2="314" y2="358"></line>
        <line x1="288" y1="376" x2="314" y2="376"></line>
      </g>
      
      <line x1="301" y1="408" x2="301" y2="452" stroke="#F4F5FB" stroke-width="3" stroke-linecap="round"></line>
      <rect x="283" y="452" width="36" height="9" rx="4.5" fill="#F4F5FB"></rect>
    </g>
  </g>

  
  <g>
    <rect x="64" y="120" width="150" height="46" rx="23" fill="none" stroke="#FF6B4A" stroke-opacity="0.5" stroke-width="2.5" filter="url(#glowMd)"></rect>
    <rect x="64" y="120" width="150" height="46" rx="23" fill="#FF6B4A" fill-opacity="0.05" stroke="#FF6B4A" stroke-width="2.5"></rect>
  </g>

  
  <g>
    
    <rect x="24" y="516" width="20" height="56" rx="10" fill="#FF6B4A" opacity="0.45" filter="url(#glowMd)"></rect>
  </g>
  <g clip-path="url(#tickerClip)">
    <rect x="24" y="516" width="1152" height="56" fill="#1A1D33"></rect>
    
    <rect x="24" y="516" width="11" height="56" fill="#FF6B4A"></rect>
    
    <g fill="#36E0E6">
      <rect x="118" y="535" width="3" height="18" rx="1.5" opacity="0.85"></rect>
      <rect x="214" y="535" width="3" height="18" rx="1.5" opacity="0.85"></rect>
      <rect x="310" y="535" width="3" height="18" rx="1.5" opacity="0.85"></rect>
      <rect x="406" y="535" width="3" height="18" rx="1.5" opacity="0.85"></rect>
      <rect x="502" y="535" width="3" height="18" rx="1.5" opacity="0.85"></rect>
      <rect x="598" y="535" width="3" height="18" rx="1.5" opacity="0.85"></rect>
      <rect x="694" y="535" width="3" height="18" rx="1.5" opacity="0.85"></rect>
      <rect x="790" y="535" width="3" height="18" rx="1.5" opacity="0.85"></rect>
      <rect x="886" y="535" width="3" height="18" rx="1.5" opacity="0.85"></rect>
      <rect x="982" y="535" width="3" height="18" rx="1.5" opacity="0.85"></rect>
      <rect x="1078" y="535" width="3" height="18" rx="1.5" opacity="0.85"></rect>
    </g>
    
    <g fill="#F4F5FB" fill-opacity="0.1">
      <rect x="134" y="540" width="64" height="8" rx="4"></rect>
      <rect x="230" y="540" width="50" height="8" rx="4"></rect>
      <rect x="326" y="540" width="58" height="8" rx="4"></rect>
      <rect x="422" y="540" width="44" height="8" rx="4"></rect>
    </g>
  </g>
  
  <rect x="24.5" y="516.5" width="1151" height="55" rx="13.5" fill="none" stroke="#F4F5FB" stroke-opacity="0.07"></rect>
</svg>